<mxfile host="app.diagrams.net" agent="Mozilla/5.0 (Windows NT 10.0; Win64; x64; rv:131.0) Gecko/20100101 Firefox/131.0" version="24.8.2">
  <diagram name="Pagina-1" id="wWWfUhJcufVi4t21lkSe">
    <mxGraphModel dx="500" dy="252" grid="1" gridSize="10" guides="1" tooltips="1" connect="1" arrows="1" fold="1" page="1" pageScale="1" pageWidth="827" pageHeight="1169" math="0" shadow="0">
      <root>
        <mxCell id="0" />
        <mxCell id="1" parent="0" />
        <mxCell id="2VISNrPo_gfINMui6J6Q-3" style="rounded=0;orthogonalLoop=1;jettySize=auto;html=1;startArrow=classic;startFill=1;endArrow=none;endFill=0;" edge="1" parent="1" source="2VISNrPo_gfINMui6J6Q-9">
          <mxGeometry relative="1" as="geometry">
            <mxPoint x="260" y="120" as="targetPoint" />
          </mxGeometry>
        </mxCell>
        <mxCell id="2VISNrPo_gfINMui6J6Q-7" style="edgeStyle=orthogonalEdgeStyle;rounded=0;orthogonalLoop=1;jettySize=auto;html=1;" edge="1" parent="1" source="2VISNrPo_gfINMui6J6Q-9">
          <mxGeometry relative="1" as="geometry">
            <mxPoint x="280" y="320" as="targetPoint" />
          </mxGeometry>
        </mxCell>
        <mxCell id="2VISNrPo_gfINMui6J6Q-8" value="h(t)" style="edgeLabel;html=1;align=center;verticalAlign=middle;resizable=0;points=[];" vertex="1" connectable="0" parent="2VISNrPo_gfINMui6J6Q-7">
          <mxGeometry x="0.6806" y="2" relative="1" as="geometry">
            <mxPoint x="-2" y="16" as="offset" />
          </mxGeometry>
        </mxCell>
        <mxCell id="2VISNrPo_gfINMui6J6Q-25" style="rounded=0;orthogonalLoop=1;jettySize=auto;html=1;startArrow=classic;startFill=1;endArrow=none;endFill=0;" edge="1" parent="1" source="2VISNrPo_gfINMui6J6Q-9">
          <mxGeometry relative="1" as="geometry">
            <mxPoint x="300" y="120" as="targetPoint" />
          </mxGeometry>
        </mxCell>
        <mxCell id="2VISNrPo_gfINMui6J6Q-9" value="LSTM 1" style="ellipse;whiteSpace=wrap;html=1;aspect=fixed;" vertex="1" parent="1">
          <mxGeometry x="240" y="200" width="80" height="80" as="geometry" />
        </mxCell>
        <mxCell id="2VISNrPo_gfINMui6J6Q-19" value="x(t)" style="text;html=1;align=center;verticalAlign=middle;whiteSpace=wrap;rounded=0;" vertex="1" parent="1">
          <mxGeometry x="230" y="90" width="60" height="30" as="geometry" />
        </mxCell>
        <mxCell id="2VISNrPo_gfINMui6J6Q-26" value="h(t-1)" style="text;html=1;align=center;verticalAlign=middle;whiteSpace=wrap;rounded=0;" vertex="1" parent="1">
          <mxGeometry x="270" y="90" width="60" height="30" as="geometry" />
        </mxCell>
      </root>
    </mxGraphModel>
  </diagram>
</mxfile>
